<svg xmlns="http://www.w3.org/2000/svg" viewBox="0 0 96 96" role="img" aria-label="管理员头像">
  <defs>
    <linearGradient id="bg" x1="0" y1="0" x2="1" y2="1">
      <stop offset="0%" stop-color="#0b4f78"/>
      <stop offset="100%" stop-color="#147d9b"/>
    </linearGradient>
    <linearGradient id="ring" x1="0" y1="0" x2="0" y2="1">
      <stop offset="0%" stop-color="#e6c897"/>
      <stop offset="100%" stop-color="#c8a86d"/>
    </linearGradient>
  </defs>
  <circle cx="48" cy="48" r="48" fill="url(#bg)"/>
  <circle cx="48" cy="48" r="44" fill="none" stroke="url(#ring)" stroke-width="2.2" opacity="0.9"/>
  <!-- professional silhouette -->
  <circle cx="48" cy="36" r="14" fill="#f4f8fa"/>
  <path d="M20 78c4-16 14-24 28-24s24 8 28 24" fill="#f4f8fa"/>
  <!-- soft collar accent -->
  <path d="M34 66c4 6 9 9 14 9s10-3 14-9c-5 3-10 4.5-14 4.5S39 69 34 66z" fill="#0a3553" opacity="0.18"/>
  <!-- small badge -->
  <circle cx="66" cy="62" r="9" fill="#0a3553"/>
  <path d="M62.5 62.2l2.2 2.2 4.8-5" fill="none" stroke="#e6c897" stroke-width="1.8" stroke-linecap="round" stroke-linejoin="round"/>
</svg>
