<svg xmlns="http://www.w3.org/2000/svg" viewBox="0 0 260 64" role="img" aria-labelledby="title desc">
<title id="title">乡海云途</title><desc id="desc">海浪与灯塔意象品牌标识</desc>
<defs><linearGradient id="g" x1="0" y1="0" x2="1" y2="1"><stop stop-color="#0b4f78"/><stop offset="1" stop-color="#1688a8"/></linearGradient></defs>
<g transform="translate(2 4)"><circle cx="28" cy="28" r="26" fill="#f4eee2"/><path d="M7 33c8-18 25-27 43-22-13 2-22 9-27 20 8-7 18-8 29-3-9 0-15 4-20 10-7 8-17 10-25 5 8 1 15-2 20-8-8 4-14 4-20-2z" fill="url(#g)"/><path d="M10 44c13 8 27 7 42-4-7 13-22 19-35 13-4-2-7-5-7-9z" fill="#c8a86d"/></g>
<g fill="#0b3d62"><text x="68" y="31" font-size="25" font-family="STKaiti,KaiTi,serif" font-weight="700">乡海云途</text><text x="70" y="49" font-size="10.5" font-family="Arial,'Microsoft YaHei',sans-serif" letter-spacing="1.2">AI 定制化海洋乡村旅游</text></g></svg>